# xmcd CD database file
# Copyright (C) 1993-1998 Ti Kan
#
# Track frame offsets:
# 150
# 14562
# 27477
# 46062
# 67495
# 80922
# 94117
# 112037
# 132250
# 149560
# 167407
# 185602
# 198762
# 218095
# 231470
# 249882
# 264535
# 280805
# 298582
#
# Disc length: 4224 seconds
#
# Revision: 0
# Processed by: cddbd v1.4b41PL1 Copyright (c) Steve Scherf et al.
# Submitted via: inCDius 1.1b9
#
DISCID=26107e13
DTITLE=Dallas Holm - This Is My Song/Dallas Holm and Praise "Live"
DYEAR=1900
DGENRE=
TTITLE0=Hey, I'm a Believer
TTITLE1=Front Seat, Back Seat
TTITLE2=He Means All to Me
TTITLE3=Jesus, I'm an Open Book
TTITLE4=Thank You Jesus
TTITLE5=If I Had It To Do All Over Again
TTITLE6=Let My Light Shine
TTITLE7=Rise Again
TTITLE8=He Knew Me Then
TTITLE9=Come Unto Jesus
TTITLE10=Jesus Got Ahold of My Life
TTITLE11=I Can't Wait
TTITLE12=I'm Going Home
TTITLE13=Saved, Saved, Saved
TTITLE14=Get Together
TTITLE15=I Love You More
TTITLE16=Holiday Inn
TTITLE17=I Love The Son
TTITLE18=Yes I Hear You
EXTD=
EXTT0=
EXTT1=
EXTT2=
EXTT3=
EXTT4=
EXTT5=
EXTT6=
EXTT7=
EXTT8=
EXTT9=
EXTT10=
EXTT11=
EXTT12=
EXTT13=
EXTT14=
EXTT15=
EXTT16=
EXTT17=
EXTT18=
PLAYORDER=
